<mxfile host="app.diagrams.net" modified="2024-02-21T17:48:15.392Z" agent="Mozilla/5.0 (X11; Linux x86_64; rv:109.0) Gecko/20100101 Firefox/114.0" etag="PxKkhkKw3ymlERHhdBX5" version="23.1.5" type="github">
  <diagram name="Page-1" id="JIs7S8eWAHzpbuv5Y9GU">
    <mxGraphModel dx="989" dy="519" grid="1" gridSize="10" guides="1" tooltips="1" connect="1" arrows="1" fold="1" page="1" pageScale="1" pageWidth="850" pageHeight="1100" math="0" shadow="0">
      <root>
        <mxCell id="0" />
        <mxCell id="1" parent="0" />
        <mxCell id="1dQV3fhn6lRo2GfLGzGb-19" value="" style="endArrow=none;html=1;rounded=0;entryX=0.279;entryY=-0.002;entryDx=0;entryDy=0;entryPerimeter=0;exitX=0.28;exitY=1.001;exitDx=0;exitDy=0;exitPerimeter=0;" edge="1" parent="1" source="1dQV3fhn6lRo2GfLGzGb-13" target="1dQV3fhn6lRo2GfLGzGb-13">
          <mxGeometry width="50" height="50" relative="1" as="geometry">
            <mxPoint x="430" y="169.08" as="sourcePoint" />
            <mxPoint x="480" y="119.08" as="targetPoint" />
          </mxGeometry>
        </mxCell>
        <mxCell id="1dQV3fhn6lRo2GfLGzGb-20" value="" style="endArrow=none;html=1;rounded=0;entryX=0.279;entryY=-0.002;entryDx=0;entryDy=0;entryPerimeter=0;exitX=0.643;exitY=1;exitDx=0;exitDy=0;exitPerimeter=0;" edge="1" parent="1" source="1dQV3fhn6lRo2GfLGzGb-13">
          <mxGeometry width="50" height="50" relative="1" as="geometry">
            <mxPoint x="521" y="550.08" as="sourcePoint" />
            <mxPoint x="520" y="8.08" as="targetPoint" />
          </mxGeometry>
        </mxCell>
        <mxCell id="1dQV3fhn6lRo2GfLGzGb-13" value="frame" style="shape=umlFrame;whiteSpace=wrap;html=1;pointerEvents=0;width=10;height=15;" vertex="1" parent="1">
          <mxGeometry x="20" y="9.08" width="780" height="810.92" as="geometry" />
        </mxCell>
        <mxCell id="1dQV3fhn6lRo2GfLGzGb-1" value="" style="ellipse;html=1;shape=startState;fillColor=#000000;strokeColor=#ff0000;" vertex="1" parent="1">
          <mxGeometry x="120" y="67.08" width="30" height="30" as="geometry" />
        </mxCell>
        <mxCell id="1dQV3fhn6lRo2GfLGzGb-4" value="" style="rhombus;whiteSpace=wrap;html=1;" vertex="1" parent="1">
          <mxGeometry x="80" y="269.08" width="40" height="50" as="geometry" />
        </mxCell>
        <mxCell id="1dQV3fhn6lRo2GfLGzGb-11" style="edgeStyle=orthogonalEdgeStyle;rounded=0;orthogonalLoop=1;jettySize=auto;html=1;entryX=0.5;entryY=1;entryDx=0;entryDy=0;endArrow=none;endFill=0;" edge="1" parent="1" source="1dQV3fhn6lRo2GfLGzGb-10" target="1dQV3fhn6lRo2GfLGzGb-4">
          <mxGeometry relative="1" as="geometry" />
        </mxCell>
        <mxCell id="1dQV3fhn6lRo2GfLGzGb-10" value="Pagar con la tarjeta de crédito" style="rounded=1;whiteSpace=wrap;html=1;" vertex="1" parent="1">
          <mxGeometry x="45" y="370" width="110" height="45" as="geometry" />
        </mxCell>
        <mxCell id="1dQV3fhn6lRo2GfLGzGb-14" value="" style="line;strokeWidth=1;fillColor=none;align=left;verticalAlign=middle;spacingTop=-1;spacingLeft=3;spacingRight=3;rotatable=0;labelPosition=right;points=[];portConstraint=eastwest;strokeColor=inherit;" vertex="1" parent="1">
          <mxGeometry x="20" y="50" width="780" height="8" as="geometry" />
        </mxCell>
        <mxCell id="1dQV3fhn6lRo2GfLGzGb-15" value="Cliente" style="text;html=1;align=center;verticalAlign=middle;resizable=0;points=[];autosize=1;strokeColor=none;fillColor=none;" vertex="1" parent="1">
          <mxGeometry x="90" y="19.08" width="60" height="30" as="geometry" />
        </mxCell>
        <mxCell id="1dQV3fhn6lRo2GfLGzGb-16" value="Socio" style="text;html=1;align=center;verticalAlign=middle;resizable=0;points=[];autosize=1;strokeColor=none;fillColor=none;" vertex="1" parent="1">
          <mxGeometry x="355" y="19.08" width="50" height="30" as="geometry" />
        </mxCell>
        <mxCell id="1dQV3fhn6lRo2GfLGzGb-18" value="Lector NFC" style="text;html=1;align=center;verticalAlign=middle;resizable=0;points=[];autosize=1;strokeColor=none;fillColor=none;" vertex="1" parent="1">
          <mxGeometry x="615" y="19.08" width="80" height="30" as="geometry" />
        </mxCell>
        <mxCell id="1dQV3fhn6lRo2GfLGzGb-24" value="" style="shape=partialRectangle;whiteSpace=wrap;html=1;bottom=1;right=1;left=1;top=0;fillColor=none;routingCenterX=-0.5;rotation=-180;" vertex="1" parent="1">
          <mxGeometry x="100" y="119.08" width="280" height="60" as="geometry" />
        </mxCell>
        <mxCell id="1dQV3fhn6lRo2GfLGzGb-27" style="edgeStyle=orthogonalEdgeStyle;rounded=0;orthogonalLoop=1;jettySize=auto;html=1;entryX=0.879;entryY=0.972;entryDx=0;entryDy=0;entryPerimeter=0;" edge="1" parent="1" source="1dQV3fhn6lRo2GfLGzGb-1" target="1dQV3fhn6lRo2GfLGzGb-24">
          <mxGeometry relative="1" as="geometry" />
        </mxCell>
        <mxCell id="1dQV3fhn6lRo2GfLGzGb-33" style="edgeStyle=orthogonalEdgeStyle;rounded=0;orthogonalLoop=1;jettySize=auto;html=1;entryX=0.5;entryY=0;entryDx=0;entryDy=0;" edge="1" parent="1" source="1dQV3fhn6lRo2GfLGzGb-28" target="1dQV3fhn6lRo2GfLGzGb-4">
          <mxGeometry relative="1" as="geometry" />
        </mxCell>
        <mxCell id="1dQV3fhn6lRo2GfLGzGb-28" value="Identificar contacto" style="rounded=1;whiteSpace=wrap;html=1;" vertex="1" parent="1">
          <mxGeometry x="45" y="179.08" width="110" height="45" as="geometry" />
        </mxCell>
        <mxCell id="1dQV3fhn6lRo2GfLGzGb-31" style="edgeStyle=orthogonalEdgeStyle;rounded=0;orthogonalLoop=1;jettySize=auto;html=1;entryX=1;entryY=0.5;entryDx=0;entryDy=0;exitX=1;exitY=0.5;exitDx=0;exitDy=0;" edge="1" parent="1" source="1dQV3fhn6lRo2GfLGzGb-4" target="1dQV3fhn6lRo2GfLGzGb-28">
          <mxGeometry relative="1" as="geometry">
            <mxPoint x="320" y="312.83" as="sourcePoint" />
            <mxPoint x="195" y="315.33" as="targetPoint" />
            <Array as="points">
              <mxPoint x="195" y="294.08" />
              <mxPoint x="195" y="201.08" />
            </Array>
          </mxGeometry>
        </mxCell>
        <mxCell id="1dQV3fhn6lRo2GfLGzGb-32" value="inválidas" style="text;html=1;align=center;verticalAlign=middle;resizable=0;points=[];autosize=1;strokeColor=none;fillColor=none;" vertex="1" parent="1">
          <mxGeometry x="120" y="264.08" width="70" height="30" as="geometry" />
        </mxCell>
        <mxCell id="1dQV3fhn6lRo2GfLGzGb-36" value="" style="rhombus;whiteSpace=wrap;html=1;" vertex="1" parent="1">
          <mxGeometry x="355" y="269.08" width="40" height="50" as="geometry" />
        </mxCell>
        <mxCell id="1dQV3fhn6lRo2GfLGzGb-37" style="edgeStyle=orthogonalEdgeStyle;rounded=0;orthogonalLoop=1;jettySize=auto;html=1;entryX=0.5;entryY=1;entryDx=0;entryDy=0;endArrow=none;endFill=0;" edge="1" parent="1" source="1dQV3fhn6lRo2GfLGzGb-38" target="1dQV3fhn6lRo2GfLGzGb-36">
          <mxGeometry relative="1" as="geometry" />
        </mxCell>
        <mxCell id="1dQV3fhn6lRo2GfLGzGb-38" value="Pagar con la tarjeta de crédito" style="rounded=1;whiteSpace=wrap;html=1;" vertex="1" parent="1">
          <mxGeometry x="320" y="370" width="110" height="45" as="geometry" />
        </mxCell>
        <mxCell id="1dQV3fhn6lRo2GfLGzGb-39" style="edgeStyle=orthogonalEdgeStyle;rounded=0;orthogonalLoop=1;jettySize=auto;html=1;entryX=0.5;entryY=0;entryDx=0;entryDy=0;" edge="1" parent="1" source="1dQV3fhn6lRo2GfLGzGb-40" target="1dQV3fhn6lRo2GfLGzGb-36">
          <mxGeometry relative="1" as="geometry" />
        </mxCell>
        <mxCell id="1dQV3fhn6lRo2GfLGzGb-40" value="Identificar contacto" style="rounded=1;whiteSpace=wrap;html=1;" vertex="1" parent="1">
          <mxGeometry x="320" y="179.08" width="110" height="45" as="geometry" />
        </mxCell>
        <mxCell id="1dQV3fhn6lRo2GfLGzGb-41" style="edgeStyle=orthogonalEdgeStyle;rounded=0;orthogonalLoop=1;jettySize=auto;html=1;entryX=1;entryY=0.5;entryDx=0;entryDy=0;exitX=1;exitY=0.5;exitDx=0;exitDy=0;" edge="1" parent="1" source="1dQV3fhn6lRo2GfLGzGb-36" target="1dQV3fhn6lRo2GfLGzGb-40">
          <mxGeometry relative="1" as="geometry">
            <mxPoint x="595" y="312.83" as="sourcePoint" />
            <mxPoint x="470" y="315.33" as="targetPoint" />
            <Array as="points">
              <mxPoint x="470" y="294.08" />
              <mxPoint x="470" y="201.08" />
            </Array>
          </mxGeometry>
        </mxCell>
        <mxCell id="1dQV3fhn6lRo2GfLGzGb-42" value="inválidas" style="text;html=1;align=center;verticalAlign=middle;resizable=0;points=[];autosize=1;strokeColor=none;fillColor=none;" vertex="1" parent="1">
          <mxGeometry x="395" y="264.08" width="70" height="30" as="geometry" />
        </mxCell>
        <mxCell id="1dQV3fhn6lRo2GfLGzGb-44" value="Validar tarjeta" style="rounded=1;whiteSpace=wrap;html=1;" vertex="1" parent="1">
          <mxGeometry x="610" y="475" width="110" height="45" as="geometry" />
        </mxCell>
        <mxCell id="1dQV3fhn6lRo2GfLGzGb-46" style="edgeStyle=orthogonalEdgeStyle;rounded=0;orthogonalLoop=1;jettySize=auto;html=1;entryX=0;entryY=0.5;entryDx=0;entryDy=0;exitX=0.5;exitY=1;exitDx=0;exitDy=0;" edge="1" parent="1" source="1dQV3fhn6lRo2GfLGzGb-45" target="1dQV3fhn6lRo2GfLGzGb-44">
          <mxGeometry relative="1" as="geometry" />
        </mxCell>
        <mxCell id="1dQV3fhn6lRo2GfLGzGb-45" value="" style="shape=partialRectangle;whiteSpace=wrap;html=1;bottom=1;right=1;left=1;top=0;fillColor=none;routingCenterX=-0.5;rotation=0;" vertex="1" parent="1">
          <mxGeometry x="90" y="415" width="280" height="60" as="geometry" />
        </mxCell>
        <mxCell id="1dQV3fhn6lRo2GfLGzGb-53" style="edgeStyle=orthogonalEdgeStyle;rounded=0;orthogonalLoop=1;jettySize=auto;html=1;entryX=0.5;entryY=0;entryDx=0;entryDy=0;" edge="1" parent="1" source="1dQV3fhn6lRo2GfLGzGb-47" target="1dQV3fhn6lRo2GfLGzGb-52">
          <mxGeometry relative="1" as="geometry" />
        </mxCell>
        <mxCell id="1dQV3fhn6lRo2GfLGzGb-47" value="" style="rhombus;whiteSpace=wrap;html=1;" vertex="1" parent="1">
          <mxGeometry x="650" y="567.0799999999999" width="40" height="50" as="geometry" />
        </mxCell>
        <mxCell id="1dQV3fhn6lRo2GfLGzGb-49" style="edgeStyle=orthogonalEdgeStyle;rounded=0;orthogonalLoop=1;jettySize=auto;html=1;entryX=0.5;entryY=0;entryDx=0;entryDy=0;exitX=0.553;exitY=0.996;exitDx=0;exitDy=0;exitPerimeter=0;" edge="1" parent="1" target="1dQV3fhn6lRo2GfLGzGb-47" source="1dQV3fhn6lRo2GfLGzGb-44">
          <mxGeometry relative="1" as="geometry">
            <mxPoint x="670" y="522" as="sourcePoint" />
          </mxGeometry>
        </mxCell>
        <mxCell id="1dQV3fhn6lRo2GfLGzGb-50" style="edgeStyle=orthogonalEdgeStyle;rounded=0;orthogonalLoop=1;jettySize=auto;html=1;entryX=1;entryY=0.5;entryDx=0;entryDy=0;exitX=1;exitY=0.5;exitDx=0;exitDy=0;" edge="1" parent="1" source="1dQV3fhn6lRo2GfLGzGb-47" target="1dQV3fhn6lRo2GfLGzGb-38">
          <mxGeometry relative="1" as="geometry">
            <mxPoint x="890" y="610.8299999999999" as="sourcePoint" />
            <mxPoint x="725" y="500" as="targetPoint" />
            <Array as="points">
              <mxPoint x="765" y="592" />
              <mxPoint x="765" y="393" />
              <mxPoint x="430" y="393" />
            </Array>
          </mxGeometry>
        </mxCell>
        <mxCell id="1dQV3fhn6lRo2GfLGzGb-51" value="inválidas" style="text;html=1;align=center;verticalAlign=middle;resizable=0;points=[];autosize=1;strokeColor=none;fillColor=none;" vertex="1" parent="1">
          <mxGeometry x="690" y="562.0799999999999" width="70" height="30" as="geometry" />
        </mxCell>
        <mxCell id="1dQV3fhn6lRo2GfLGzGb-52" value="" style="ellipse;html=1;shape=endState;fillColor=#000000;strokeColor=#ff0000;" vertex="1" parent="1">
          <mxGeometry x="655" y="680" width="30" height="30" as="geometry" />
        </mxCell>
      </root>
    </mxGraphModel>
  </diagram>
</mxfile>
